<?xml version="1.0" encoding="utf-8"?>
<!-- Generator: Adobe Illustrator 15.1.0, SVG Export Plug-In . SVG Version: 6.00 Build 0)  -->
<!DOCTYPE svg PUBLIC "-//W3C//DTD SVG 1.1//EN" "http://www.w3.org/Graphics/SVG/1.1/DTD/svg11.dtd">
<svg version="1.1" id="Ebene_1" xmlns="http://www.w3.org/2000/svg" xmlns:xlink="http://www.w3.org/1999/xlink" x="0px" y="0px"
	 width="1000px" height="1391px" viewBox="0 0 1000 1391" enable-background="new 0 0 1000 1391" xml:space="preserve">
<rect fill="#E9EBEE" width="1000" height="1391"/>
<rect y="100" fill="#4D4D4D" width="1000" height="367"/>
<rect fill="#3A5795" width="1000" height="100"/>
<path fill="#FFFFFF" d="M97,20H43.2c-1.8,0-3.2,1.5-3.2,3.3v53.8c0,1.8,1.4,2.9,3.2,2.9H72V57h-8v-9h8v-6.8
	c0-7.8,4.9-12.1,11.8-12.1c3.3,0,6.2,0.2,7.2,0.4v8.2l-4.7,0c-3.8,0-4.3,1.8-4.3,4.4V48h8.6l-1.2,9H82v23h15c1.8,0,3-1,3-2.9V23.3
	C100,21.5,98.8,20,97,20z"/>
<g>
	<path fill="#FFFFFF" d="M152.3,62.6v8.7c-1.2,0.2-2.7,0.3-4.5,0.6c-1.9,0.3-4.1,0.5-6.6,0.5c-9.3,0-15.3-3.4-18-10.1
		c-0.9-2.3-1.5-5.6-1.5-10.8v-2.9c0-6.3,1-10.3,2.4-12.6c3.1-5.4,8.8-8.2,17.1-8.2c3.5,0,7.1,0.5,11.1,1.2v8.6
		c-4.4-0.6-7.6-0.9-10-0.9c-4,0-6.2,0.3-7.7,1.9c-1.3,1.1-2,3.7-2,8.6V54c0,4.6,0.9,6.5,1.7,7.4c1.2,1.5,3.6,2.2,7.8,2.2h1
		C145.2,63.6,148.3,63.3,152.3,62.6z"/>
	<path fill="#FFFFFF" d="M182.6,53.6v5.7c0,6-2.2,9.9-6.4,11.8c-2.1,0.9-4.6,1.3-7.6,1.3c-6.3,0-10.5-2.1-12.5-6.2
		c-0.9-1.7-1.3-3.8-1.3-6.3V53c0-6.1,2.6-10,7.9-11.6c1.8-0.5,3.6-0.9,5.6-0.9h0.9c6.7,0,10.8,2.6,12.6,7.5
		C182.4,49.5,182.6,51.4,182.6,53.6z M170.9,48.9c-0.5-0.3-1.2-0.3-1.9-0.3h-0.8c-1.7,0-2.9,0.7-3.6,2.1c-0.2,0.5-0.3,1.1-0.3,2v7.8
		c0,2.7,1.4,4,4.2,4h0.2c2.2,0,3.6-1,4.1-2.9c0-0.5,0.1-1.1,0.1-2v-6.3C173,50.8,172.3,49.3,170.9,48.9z"/>
	<path fill="#FFFFFF" d="M195.1,58.7v1.2c0,2.1,0.7,3.4,2,3.8c1.7,0.5,4.6,0.4,5,0.4v8c-0.9,0.1-1.5,0.1-2.3,0.1
		c-6.8,0-11.2-2.4-13.3-7.2c-0.5-1.3-0.9-2.7-1-4c-0.1-0.5-0.1-1-0.1-1.5v-0.4V28.3l9.6-1.7V58.7z"/>
	<path fill="#FFFFFF" d="M214.7,58.7v1.2c0,2.1,0.7,3.4,2,3.8c1.7,0.5,4.6,0.4,5,0.4v8c-0.9,0.1-1.5,0.1-2.3,0.1
		c-6.8,0-11.2-2.4-13.3-7.2c-0.5-1.3-0.9-2.7-1-4c-0.1-0.5-0.1-1-0.1-1.5v-0.4V28.3l9.6-1.7V58.7z"/>
	<path fill="#FFFFFF" d="M251.8,53.7v5.4v0.2h-17.4v0.9c0,2.1,0.6,3.4,1.9,3.8c0.9,0.2,1.9,0.4,3.4,0.4h0.8c3.3,0,6.8-0.3,10.5-1.1
		h0.1v7.8c0,0.1-1.6,0.4-4.9,0.9c-2,0.2-4.4,0.3-7,0.3c-6.8,0-11.2-2.3-13.2-6.9c-0.8-1.9-1.1-3.8-1.1-5.7v-7.5
		c0-5.5,2.3-9.1,6.9-10.9c2.2-0.7,4.3-1,6.5-1c6.4,0,10.6,2.1,12.5,6.3C251.4,48.4,251.8,50.7,251.8,53.7z M240.8,48.4
		c-0.7-0.5-1.6-0.7-2.6-0.7c-2.7,0-3.8,1.2-3.8,3.6v1.5h7.8v-0.5C242.2,50.1,241.7,48.8,240.8,48.4z"/>
	<path fill="#FFFFFF" d="M279.7,41.8v7.7c-3.4-0.6-6.8-1-8.7-1c-2.3,0-3.8,0.4-4.5,1.2c-0.6,0.4-1,2-1,4.9v4c0,2.6,0.3,4.1,0.9,4.6
		c0.7,0.9,2.2,1.3,4.5,1.3h0.7c1.7,0,4.4-0.4,8.2-1.1h0.1v7.7c0,0.2-1.7,0.5-5.1,1c-1.3,0.2-2.9,0.3-4.7,0.3
		c-6.6,0-10.9-2.4-12.9-7.2c-0.7-1.5-1-4.1-1-7.7v-2.1c0-4.4,0.6-7.5,1.7-9.1c2.3-3.8,6.3-5.8,12.2-5.8
		C273,40.5,276.2,41,279.7,41.8z"/>
	<path fill="#FFFFFF" d="M305.2,72.1h-2.3c-6.8,0-14.3,0.6-14.3-10.9c0-0.2-0.1-3.3-0.1-6.3v-5.9h-4.7v-8h4.7v-7.7l9.6-1.6V41h7.3
		l-1,8h-6.3v8.9v-8.9v11c0,2,0,3.6,2.1,4.3c1.7,0.8,4.7,0.9,5,0.9V72.1z"/>
	<path fill="#FFFFFF" d="M336,53.6v5.7c0,6-2.2,9.9-6.4,11.8c-2.1,0.9-4.6,1.3-7.6,1.3c-6.3,0-10.5-2.1-12.5-6.2
		c-0.9-1.7-1.3-3.8-1.3-6.3V53c0-6.1,2.6-10,7.9-11.6c1.8-0.5,3.6-0.9,5.6-0.9h0.9c6.7,0,10.8,2.6,12.6,7.5
		C335.8,49.5,336,51.4,336,53.6z M324.4,48.9c-0.5-0.3-1.2-0.3-1.9-0.3h-0.8c-1.7,0-2.9,0.7-3.6,2.1c-0.2,0.5-0.3,1.1-0.3,2v7.8
		c0,2.7,1.4,4,4.2,4h0.2c2.2,0,3.6-1,4.1-2.9c0-0.5,0.1-1.1,0.1-2v-6.3C326.5,50.8,325.8,49.3,324.4,48.9z"/>
	<path fill="#FFFFFF" d="M358.1,40.4l0.9,8.2c-1.2-0.1-3.3,0.1-4.1,0.3l-0.6,0.1c-1.4,0.3-3.3,0.9-5.9,1.9v1.6V72h-9.5V40.7h7.9
		c0.1,0.2,0.2,0.5,0.3,0.7c0.2,0.4,0.3,0.9,0.5,1.6c0.8-0.3,1.1-0.4,2.2-0.8c1.3-0.5,2.8-0.9,4.6-1.3
		C355.6,40.6,356.9,40.5,358.1,40.4z"/>
	<path fill="#FFFFFF" d="M374.4,72.4c-4.6,0-9.5-0.6-11.9-1l-0.9-8.3c2.2,0.5,14.5,2.9,15.7,0c1.2-3.1-9.1-2.4-13.7-6.8
		c-2.3-2-2.4-4.7-2.2-6.8c0.9-8.1,8.6-8.7,13.1-8.9c4.2-0.2,8.3,0.3,10.7,0.8l0.9,8.2c-3-0.6-13.4-2.3-14.5,0.3
		c-1.3,3.1,9.6,2.9,13.7,6.8c2.2,2.2,2.3,4.7,2.1,6.9C386.6,71.5,379,72.2,374.4,72.4z"/>
	<path fill="#FFFFFF" d="M444.9,62.6v8.7c-1.2,0.2-2.7,0.3-4.5,0.6c-1.9,0.3-4.1,0.5-6.6,0.5c-9.3,0-15.3-3.4-18-10.1
		c-0.9-2.3-1.5-5.6-1.5-10.8v-2.9c0-6.3,1-10.3,2.4-12.6c3.1-5.4,8.8-8.2,17.1-8.2c3.5,0,7.1,0.5,11.1,1.2v8.6
		c-4.4-0.6-7.6-0.9-10-0.9c-4,0-6.2,0.3-7.7,1.9c-1.3,1.1-2,3.7-2,8.6V54c0,4.6,0.9,6.5,1.7,7.4c1.2,1.5,3.6,2.2,7.8,2.2h1
		C437.8,63.6,440.9,63.3,444.9,62.6z"/>
	<path fill="#FFFFFF" d="M474.7,52.9V72h-7.9c-0.1-0.2-0.1-0.4-0.2-0.6c-0.2-0.4-0.2-0.9-0.3-1.3c-2.8,1.5-5.6,2.3-8.6,2.3h-0.8
		c-2.9,0-5.1-1.1-6.8-3.3c-1.1-1.7-1.7-3.6-1.7-5.8V63c0-3.8,1.3-6.2,4-7.5c1.1-0.8,3.8-1.1,8.2-1.1h4.5v-1c0-2.2-0.3-3.4-0.9-3.7
		c-0.7-0.5-1.9-0.8-3.6-0.8h-9l0.9-7.9h9.6c6.1,0,9.9,1.5,11.4,4.5C474.3,47.4,474.7,49.8,474.7,52.9z M461.9,60.8
		c-1.9,0-3,0.2-3.4,0.6c-0.3,0.3-0.5,0.8-0.5,1.6c0,1.7,0.9,2.6,2.6,2.6c1.2,0,2.7-0.5,4.4-1.3v-3.5H461.9z"/>
	<path fill="#FFFFFF" d="M497.7,40.4l0.9,8.2c-1.2-0.1-3.3,0.1-4.1,0.3l-0.6,0.1c-1.4,0.3-3.3,0.9-5.9,1.9v1.6V72h-9.5V40.7h7.9
		c0.1,0.2,0.2,0.5,0.3,0.7c0.2,0.4,0.3,0.9,0.5,1.6c0.8-0.3,1.1-0.4,2.2-0.8c1.3-0.5,2.8-0.9,4.6-1.3
		C495.3,40.6,496.5,40.5,497.7,40.4z"/>
	<path fill="#FFFFFF" d="M502.8,44.8c1.3-2.9,4.7-4.3,10.2-4.3c2,0.1,4.8,0.5,6.8,1.2c0,1.3,0.1-2,0.1-5.6c0-2.2,0-4.7,0.1-7.6
		l9.5-1.7v44.5c-4.7,0.8-8.8,1.2-12.8,1.2c-5.6,0-9.6-1.1-11.9-3.3c-1.1-1.2-1.7-2.1-2-2.9c-0.8-1.2-1.2-4.4-1.2-9.4v-3.1
		C501.7,49.1,502.1,46.1,502.8,44.8z M511.5,61.9c0.5,1.8,2.2,2.7,5,2.7h0.6l2.8-0.1V49.9c-1.4-0.9-2.9-1.3-4.4-1.3h-0.7l-0.7,0.1
		c-1.9,0.3-2.8,1.5-2.8,3.5v7.8C511.3,60.6,511.3,61.2,511.5,61.9z"/>
</g>
<rect y="467" fill="#FFFFFF" width="1000" height="101"/>
<g>
	<path fill="#FFFFFF" d="M959,1346c0,2.8-2.2,5-5,5H45c-2.8,0-5-2.2-5-5V613c0-2.8,2.2-5,5-5h909c2.8,0,5,2.2,5,5V1346z"/>
	<path fill="none" stroke="#D6D6D6" stroke-miterlimit="10" d="M959,1346c0,2.8-2.2,5-5,5H45c-2.8,0-5-2.2-5-5V613c0-2.8,2.2-5,5-5
		h909c2.8,0,5,2.2,5,5V1346z"/>
</g>
<line fill="none" stroke="#D3D6DB" stroke-width="2" stroke-miterlimit="10" x1="400" y1="467" x2="400" y2="568"/>
<line fill="none" stroke="#D3D6DB" stroke-width="2" stroke-miterlimit="10" x1="600" y1="467" x2="600" y2="568"/>
<line fill="none" stroke="#D3D6DB" stroke-width="2" stroke-miterlimit="10" x1="800" y1="467" x2="800" y2="568"/>
<g>
	<path fill="#365899" d="M420.6,509.4H436v3.8h-10.9v5h9.6v3.8h-9.6v9.1h-4.5V509.4z"/>
	<path fill="#365899" d="M447.4,514.7c0.1,0,0.2,0,0.4,0v4.3c-0.3,0-0.5,0-0.7-0.1s-0.4,0-0.5,0c-1.7,0-2.8,0.5-3.4,1.6
		c-0.3,0.6-0.5,1.6-0.5,2.8v7.6h-4.2v-16h4v2.8c0.6-1.1,1.2-1.8,1.7-2.2c0.8-0.7,1.8-1,3-1C447.3,514.7,447.4,514.7,447.4,514.7z"/>
	<path fill="#365899" d="M454.5,513.1h-4.2v-3.9h4.2V513.1z M450.3,515h4.2v16h-4.2V515z"/>
	<path fill="#365899" d="M469,515.4c1.1,0.5,2,1.3,2.8,2.4c0.7,0.9,1.1,2,1.3,3.3c0.1,0.7,0.2,1.8,0.1,3.2h-11.6
		c0.1,1.6,0.6,2.7,1.7,3.4c0.6,0.4,1.4,0.6,2.3,0.6c1,0,1.7-0.2,2.3-0.7c0.3-0.3,0.6-0.6,0.9-1.1h4.3c-0.1,0.9-0.6,1.9-1.5,2.9
		c-1.4,1.6-3.4,2.3-6,2.3c-2.1,0-4-0.7-5.6-2s-2.4-3.4-2.4-6.4c0-2.8,0.7-4.9,2.2-6.4c1.5-1.5,3.4-2.2,5.7-2.2
		C466.6,514.6,467.9,514.9,469,515.4z M462.7,519c-0.6,0.6-1,1.4-1.1,2.5h7.2c-0.1-1.1-0.4-1.9-1.1-2.5s-1.5-0.9-2.5-0.9
		C464.2,518.1,463.3,518.4,462.7,519z"/>
	<path fill="#365899" d="M488.1,515.9c1,0.9,1.6,2.3,1.6,4.3V531h-4.3v-9.7c0-0.8-0.1-1.5-0.3-1.9c-0.4-0.8-1.2-1.2-2.3-1.2
		c-1.4,0-2.4,0.6-2.9,1.8c-0.3,0.6-0.4,1.4-0.4,2.4v8.6h-4.2v-15.9h4v2.3c0.5-0.8,1-1.4,1.5-1.8c0.9-0.6,1.9-1,3.3-1
		C485.8,514.7,487.1,515.1,488.1,515.9z"/>
	<path fill="#365899" d="M502.1,515.3c0.8,0.4,1.4,1,1.8,1.8v-7.6h4.2V531h-4.1v-2.2c-0.6,0.9-1.3,1.6-2,2.1s-1.7,0.6-2.8,0.6
		c-1.9,0-3.4-0.8-4.7-2.3s-1.9-3.4-1.9-5.8c0-2.7,0.6-4.9,1.9-6.4s2.9-2.3,5-2.3C500.5,514.7,501.3,514.9,502.1,515.3z M503.1,526.7
		c0.6-0.9,0.9-2,0.9-3.4c0-2-0.5-3.3-1.5-4.2c-0.6-0.5-1.3-0.8-2.1-0.8c-1.2,0-2.1,0.5-2.7,1.4s-0.9,2.1-0.9,3.4
		c0,1.5,0.3,2.7,0.9,3.5s1.5,1.3,2.6,1.3S502.5,527.5,503.1,526.7z"/>
	<path fill="#365899" d="M515.2,525.9c0.1,0.7,0.3,1.3,0.6,1.6c0.5,0.6,1.5,0.8,2.9,0.8c0.8,0,1.5-0.1,2-0.4
		c0.5-0.2,0.7-0.6,0.7-1.1c0-0.5-0.2-0.8-0.6-1.1c-0.4-0.2-1.8-0.7-4.4-1.3c-1.8-0.4-3.1-1-3.8-1.7c-0.7-0.7-1.1-1.6-1.1-2.9
		c0-1.5,0.6-2.7,1.7-3.8c1.2-1.1,2.8-1.6,4.9-1.6c2,0,3.6,0.4,4.9,1.2s2,2.2,2.2,4.1h-4.2c-0.1-0.5-0.2-1-0.5-1.3
		c-0.5-0.6-1.2-0.8-2.3-0.8c-0.9,0-1.6,0.1-1.9,0.4s-0.6,0.6-0.6,1c0,0.5,0.2,0.8,0.6,1c0.4,0.2,1.9,0.6,4.4,1.2
		c1.7,0.4,2.9,1,3.7,1.8c0.8,0.8,1.2,1.8,1.2,3c0,1.6-0.6,2.9-1.8,3.9s-3,1.5-5.5,1.5c-2.5,0-4.4-0.5-5.6-1.6s-1.8-2.4-1.8-4.1
		H515.2z"/>
</g>
<g>
	<path fill="#365899" d="M635.4,521.7c-1.3,1.1-3.1,1.6-5.4,1.6h-4.5v7.8H621v-21.6h9.3c2.1,0,3.8,0.6,5.1,1.7
		c1.3,1.1,1.9,2.8,1.9,5.2C637.3,518.8,636.7,520.6,635.4,521.7z M632,513.9c-0.6-0.5-1.4-0.7-2.4-0.7h-4.1v6.4h4.1
		c1,0,1.8-0.3,2.4-0.8s0.9-1.3,0.9-2.5S632.6,514.4,632,513.9z"/>
	<path fill="#365899" d="M652.1,515.1c0.8,0.3,1.5,0.9,2,1.6c0.4,0.6,0.7,1.2,0.8,1.8c0.1,0.6,0.1,1.7,0.1,3.1v9.4h-4.3v-9.7
		c0-0.9-0.1-1.6-0.4-2.1c-0.4-0.7-1.1-1.1-2.2-1.1c-1.1,0-1.9,0.4-2.5,1.1c-0.6,0.7-0.9,1.8-0.9,3.2v8.7h-4.2v-21.5h4.2v7.6
		c0.6-0.9,1.3-1.6,2.1-1.9c0.8-0.4,1.6-0.5,2.5-0.5C650.4,514.6,651.3,514.8,652.1,515.1z"/>
	<path fill="#365899" d="M672.3,529c-1.3,1.7-3.4,2.5-6.1,2.5s-4.8-0.8-6.1-2.5s-2-3.7-2-6c0-2.3,0.7-4.3,2-6s3.4-2.5,6.1-2.5
		s4.8,0.8,6.1,2.5s2,3.7,2,6C674.3,525.4,673.6,527.4,672.3,529z M668.9,526.7c0.7-0.9,1-2.1,1-3.7c0-1.6-0.3-2.8-1-3.7
		s-1.6-1.3-2.8-1.3s-2.2,0.4-2.8,1.3s-1,2.1-1,3.7c0,1.6,0.3,2.8,1,3.7c0.7,0.9,1.6,1.3,2.8,1.3S668.3,527.6,668.9,526.7z"/>
	<path fill="#365899" d="M675.6,518.2v-3h2.2v-4.5h4.1v4.5h2.6v3H682v8.4c0,0.7,0.1,1.1,0.2,1.2s0.7,0.2,1.5,0.2c0.1,0,0.3,0,0.4,0
		s0.3,0,0.4,0v3.1l-2,0.1c-2,0.1-3.3-0.3-4-1c-0.5-0.5-0.7-1.2-0.7-2.2v-9.8H675.6z"/>
	<path fill="#365899" d="M700.6,529c-1.3,1.7-3.4,2.5-6.1,2.5s-4.8-0.8-6.1-2.5s-2-3.7-2-6c0-2.3,0.7-4.3,2-6s3.4-2.5,6.1-2.5
		s4.8,0.8,6.1,2.5s2,3.7,2,6C702.6,525.4,701.9,527.4,700.6,529z M697.2,526.7c0.7-0.9,1-2.1,1-3.7c0-1.6-0.3-2.8-1-3.7
		s-1.6-1.3-2.8-1.3s-2.2,0.4-2.8,1.3s-1,2.1-1,3.7c0,1.6,0.3,2.8,1,3.7c0.7,0.9,1.6,1.3,2.8,1.3S696.6,527.6,697.2,526.7z"/>
	<path fill="#365899" d="M708.8,525.9c0.1,0.7,0.3,1.3,0.6,1.6c0.5,0.6,1.5,0.8,2.9,0.8c0.8,0,1.5-0.1,2-0.4
		c0.5-0.2,0.7-0.6,0.7-1.1c0-0.5-0.2-0.8-0.6-1.1c-0.4-0.2-1.8-0.7-4.4-1.3c-1.8-0.4-3.1-1-3.8-1.7c-0.7-0.7-1.1-1.6-1.1-2.9
		c0-1.5,0.6-2.7,1.7-3.8c1.2-1.1,2.8-1.6,4.9-1.6c2,0,3.6,0.4,4.9,1.2s2,2.2,2.2,4.1h-4.2c-0.1-0.5-0.2-1-0.5-1.3
		c-0.5-0.6-1.2-0.8-2.3-0.8c-0.9,0-1.6,0.1-1.9,0.4s-0.6,0.6-0.6,1c0,0.5,0.2,0.8,0.6,1c0.4,0.2,1.9,0.6,4.4,1.2
		c1.7,0.4,2.9,1,3.7,1.8c0.8,0.8,1.2,1.8,1.2,3c0,1.6-0.6,2.9-1.8,3.9s-3,1.5-5.5,1.5c-2.5,0-4.4-0.5-5.6-1.6
		c-1.2-1.1-1.8-2.4-1.8-4.1H708.8z"/>
</g>
<g>
	<path fill="#365899" d="M820.9,509.4h4.5v17.7h10.8v3.9h-15.3V509.4z"/>
	<path fill="#365899" d="M843.2,513.1h-4.2v-3.9h4.2V513.1z M838.9,515h4.2v16h-4.2V515z"/>
	<path fill="#365899" d="M847.2,509.5h4.1v11.6l5.3-6h5.2l-5.7,5.9l5.9,9.9h-5.1l-3.9-6.8l-1.7,1.8v5h-4.1V509.5z"/>
	<path fill="#365899" d="M874.3,515.4c1.1,0.5,2,1.3,2.8,2.4c0.7,0.9,1.1,2,1.3,3.3c0.1,0.7,0.2,1.8,0.1,3.2h-11.6
		c0.1,1.6,0.6,2.7,1.7,3.4c0.6,0.4,1.4,0.6,2.3,0.6c1,0,1.7-0.2,2.3-0.7c0.3-0.3,0.6-0.6,0.9-1.1h4.3c-0.1,0.9-0.6,1.9-1.5,2.9
		c-1.4,1.6-3.4,2.3-6,2.3c-2.1,0-4-0.7-5.6-2c-1.6-1.3-2.4-3.4-2.4-6.4c0-2.8,0.7-4.9,2.2-6.4c1.5-1.5,3.4-2.2,5.7-2.2
		C871.9,514.6,873.2,514.9,874.3,515.4z M868,519c-0.6,0.6-1,1.4-1.1,2.5h7.2c-0.1-1.1-0.4-1.9-1.1-2.5c-0.7-0.6-1.5-0.9-2.5-0.9
		C869.5,518.1,868.6,518.4,868,519z"/>
	<path fill="#365899" d="M883.8,525.9c0.1,0.7,0.3,1.3,0.6,1.6c0.5,0.6,1.5,0.8,2.9,0.8c0.8,0,1.5-0.1,2-0.4
		c0.5-0.2,0.7-0.6,0.7-1.1c0-0.5-0.2-0.8-0.6-1.1c-0.4-0.2-1.8-0.7-4.4-1.3c-1.8-0.4-3.1-1-3.8-1.7c-0.7-0.7-1.1-1.6-1.1-2.9
		c0-1.5,0.6-2.7,1.7-3.8s2.8-1.6,4.9-1.6c2,0,3.6,0.4,4.9,1.2s2,2.2,2.2,4.1h-4.2c-0.1-0.5-0.2-1-0.5-1.3c-0.5-0.6-1.2-0.8-2.4-0.8
		c-0.9,0-1.6,0.1-1.9,0.4s-0.6,0.6-0.6,1c0,0.5,0.2,0.8,0.6,1c0.4,0.2,1.9,0.6,4.4,1.2c1.7,0.4,2.9,1,3.7,1.8c0.8,0.8,1.2,1.8,1.2,3
		c0,1.6-0.6,2.9-1.8,3.9c-1.2,1-3,1.5-5.5,1.5c-2.5,0-4.4-0.5-5.6-1.6c-1.2-1.1-1.8-2.4-1.8-4.1H883.8z"/>
</g>
<g>
	<path fill="#4B4F56" d="M83.9,644.7h6.8l10.2,28.8h-6.5l-1.9-5.9H81.9l-2,5.9h-6.3L83.9,644.7z M83.5,662.6h7.4l-3.6-11.3
		L83.5,662.6z"/>
	<path fill="#4B4F56" d="M122.3,654.8c1.6,2,2.4,4.6,2.4,7.8c0,3.3-0.8,6-2.4,8.2c-1.6,2.2-3.8,3.3-6.6,3.3c-1.8,0-3.2-0.4-4.3-1.1
		c-0.6-0.4-1.3-1.1-2.1-2.2v2.7h-5.5v-28.8h5.6V655c0.7-1,1.5-1.7,2.3-2.3c1-0.7,2.3-1,3.9-1C118.5,651.8,120.7,652.8,122.3,654.8z
		 M117.6,667.8c0.8-1.2,1.2-2.7,1.2-4.6c0-1.5-0.2-2.8-0.6-3.8c-0.7-1.9-2.1-2.8-4.1-2.8c-2,0-3.4,0.9-4.2,2.8
		c-0.4,1-0.6,2.2-0.6,3.8c0,1.8,0.4,3.3,1.2,4.5c0.8,1.2,2.1,1.8,3.7,1.8C115.7,669.5,116.8,668.9,117.6,667.8z"/>
	<path fill="#4B4F56" d="M146.3,670.9c-1.8,2.2-4.5,3.3-8.2,3.3c-3.7,0-6.4-1.1-8.2-3.3c-1.8-2.2-2.7-4.9-2.7-8c0-3.1,0.9-5.7,2.7-8
		c1.8-2.3,4.5-3.4,8.2-3.4c3.7,0,6.4,1.1,8.2,3.4c1.8,2.3,2.7,4.9,2.7,8C149,666,148.1,668.7,146.3,670.9z M141.8,667.8
		c0.9-1.2,1.3-2.8,1.3-4.9c0-2.1-0.4-3.8-1.3-4.9c-0.9-1.2-2.1-1.7-3.8-1.7c-1.6,0-2.9,0.6-3.8,1.7s-1.3,2.8-1.3,4.9
		c0,2.1,0.4,3.8,1.3,4.9s2.1,1.7,3.8,1.7C139.7,669.6,141,669,141.8,667.8z"/>
	<path fill="#4B4F56" d="M158.5,652.2v12.8c0,1.2,0.1,2.1,0.4,2.7c0.5,1.1,1.5,1.6,3,1.6c1.9,0,3.2-0.8,3.9-2.3
		c0.4-0.8,0.5-1.9,0.5-3.3v-11.6h5.6v21.3h-5.4v-3c-0.1,0.1-0.2,0.3-0.4,0.6c-0.2,0.3-0.5,0.6-0.7,0.9c-0.9,0.8-1.7,1.3-2.5,1.6
		s-1.8,0.4-2.9,0.4c-3.1,0-5.3-1.1-6.3-3.4c-0.6-1.2-0.9-3.1-0.9-5.5v-12.8H158.5z"/>
	<path fill="#4B4F56" d="M175.2,656.4v-4h3v-5.9h5.5v5.9h3.5v4h-3.5v11.2c0,0.9,0.1,1.4,0.3,1.6c0.2,0.2,0.9,0.3,2,0.3
		c0.2,0,0.3,0,0.5,0c0.2,0,0.4,0,0.6,0v4.2l-2.6,0.1c-2.6,0.1-4.4-0.4-5.4-1.4c-0.6-0.6-0.9-1.6-0.9-2.9v-13.1H175.2z"/>
</g>
<line fill="#FFFFFF" stroke="#D6D6D6" stroke-miterlimit="10" x1="40" y1="708.5" x2="959" y2="708.5"/>
<line fill="none" stroke="#D3D6DB" stroke-width="2" stroke-miterlimit="10" x1="0" y1="568" x2="1000" y2="568"/>
</svg>
