<?xml version="1.0" encoding="utf-8"?>
<!-- Generator: Adobe Illustrator 15.1.0, SVG Export Plug-In . SVG Version: 6.00 Build 0)  -->
<!DOCTYPE svg PUBLIC "-//W3C//DTD SVG 1.1//EN" "http://www.w3.org/Graphics/SVG/1.1/DTD/svg11.dtd">
<svg version="1.1" id="Ebene_1" xmlns="http://www.w3.org/2000/svg" xmlns:xlink="http://www.w3.org/1999/xlink" x="0px" y="0px"
	 width="397.7px" height="121.8px" viewBox="0 0 397.7 121.8" enable-background="new 0 0 397.7 121.8" xml:space="preserve">
<g>
	<g>
		<path fill="#FFFFFF" d="M126.7,36.3v5.3H113v6.6h11.9v4.9H113v11.8h-6.3V36.3H126.7z"/>
		<path fill="#FFFFFF" d="M145.7,36.3c1.3,0,2.4,0.2,3.4,0.6c1,0.4,1.9,1,2.6,1.7c0.7,0.7,1.3,1.5,1.7,2.5c0.4,0.9,0.6,2,0.6,3
			c0,1.7-0.4,3.1-1.1,4.3c-0.7,1.2-1.9,2.2-3.4,2.8v0.1c0.8,0.2,1.4,0.5,1.9,1c0.5,0.4,0.9,1,1.2,1.6c0.3,0.6,0.6,1.3,0.7,2
			c0.1,0.7,0.2,1.4,0.3,2.2c0,0.5,0.1,1,0.1,1.6c0,0.6,0.1,1.2,0.1,1.9c0.1,0.6,0.2,1.2,0.3,1.8c0.1,0.6,0.4,1.1,0.7,1.5h-6.3
			c-0.3-0.9-0.6-2-0.6-3.2c-0.1-1.2-0.2-2.4-0.4-3.6c-0.2-1.5-0.7-2.6-1.4-3.3c-0.7-0.7-1.8-1-3.4-1h-6.3v11.1h-6.3V36.3H145.7z
			 M143.5,49.2c1.4,0,2.5-0.3,3.2-1c0.7-0.6,1.1-1.7,1.1-3.1c0-1.4-0.4-2.4-1.1-3c-0.7-0.6-1.8-0.9-3.2-0.9h-6.9v8H143.5z"/>
		<path fill="#FFFFFF" d="M165.4,36.3v28.5h-6.3V36.3H165.4z"/>
		<path fill="#FFFFFF" d="M192.2,36.3v5.3h-15v6.1h13.8v4.9h-13.8v7h15.3v5.3h-21.6V36.3H192.2z"/>
		<path fill="#FFFFFF" d="M202.9,36.3l11.9,19.1h0.1V36.3h5.9v28.5h-6.3l-11.8-19.1h-0.1v19.1h-5.9V36.3H202.9z"/>
		<path fill="#FFFFFF" d="M238.5,36.3c1.8,0,3.5,0.3,5.1,0.9c1.6,0.6,3,1.5,4.1,2.6c1.2,1.2,2.1,2.6,2.7,4.4c0.7,1.8,1,3.8,1,6.2
			c0,2.1-0.3,4-0.8,5.7c-0.5,1.8-1.3,3.3-2.4,4.5c-1.1,1.3-2.4,2.3-4,3c-1.6,0.7-3.5,1.1-5.7,1.1h-12.3V36.3H238.5z M238.1,59.6
			c0.9,0,1.8-0.1,2.6-0.4c0.9-0.3,1.6-0.8,2.3-1.5c0.7-0.7,1.2-1.6,1.6-2.6c0.4-1.1,0.6-2.4,0.6-4c0-1.4-0.1-2.7-0.4-3.9
			c-0.3-1.2-0.7-2.1-1.4-3c-0.6-0.8-1.5-1.5-2.5-1.9c-1-0.4-2.3-0.7-3.9-0.7h-4.5v17.9L238.1,59.6L238.1,59.6z"/>
		<path fill="#FFFFFF" d="M120.1,68.1c1.4,0,2.6,0.1,3.7,0.4c1.1,0.2,2.1,0.6,2.9,1.2c0.8,0.5,1.4,1.3,1.9,2.2
			c0.4,0.9,0.7,2,0.7,3.3c0,1.4-0.3,2.6-1,3.6c-0.7,1-1.6,1.7-2.9,2.4c1.8,0.5,3.1,1.4,3.9,2.7c0.9,1.3,1.3,2.8,1.3,4.6
			c0,1.4-0.3,2.7-0.8,3.7c-0.6,1-1.3,1.9-2.3,2.6c-0.9,0.7-2,1.2-3.2,1.5c-1.2,0.3-2.5,0.5-3.7,0.5h-13.8V68.1H120.1z M119.3,79.6
			c1.1,0,2-0.3,2.8-0.8c0.7-0.5,1.1-1.4,1.1-2.6c0-0.7-0.1-1.2-0.4-1.6c-0.2-0.4-0.6-0.8-1-1c-0.4-0.2-0.9-0.4-1.4-0.5
			s-1.1-0.1-1.6-0.1H113v6.7H119.3z M119.7,91.7c0.6,0,1.2-0.1,1.8-0.2c0.6-0.1,1-0.3,1.5-0.6c0.4-0.3,0.8-0.7,1-1.1
			s0.4-1.1,0.4-1.8c0-1.5-0.4-2.5-1.2-3.1c-0.8-0.6-1.9-0.9-3.3-0.9H113v7.8H119.7z"/>
		<path fill="#FFFFFF" d="M134.5,76.5c0.6-1.8,1.6-3.4,2.8-4.8c1.2-1.4,2.7-2.4,4.4-3.2c1.7-0.8,3.7-1.2,5.9-1.2
			c2.2,0,4.2,0.4,5.9,1.2c1.7,0.8,3.2,1.8,4.4,3.2c1.2,1.4,2.1,2.9,2.8,4.8c0.6,1.8,1,3.8,1,5.9c0,2.1-0.3,4-1,5.8
			c-0.6,1.8-1.6,3.4-2.8,4.7c-1.2,1.3-2.7,2.4-4.4,3.1c-1.7,0.8-3.7,1.1-5.9,1.1c-2.2,0-4.1-0.4-5.9-1.1c-1.7-0.8-3.2-1.8-4.4-3.1
			c-1.2-1.3-2.1-2.9-2.8-4.7c-0.6-1.8-1-3.7-1-5.8C133.5,80.3,133.9,78.3,134.5,76.5z M140.2,85.9c0.3,1.1,0.7,2.1,1.3,3
			c0.6,0.9,1.4,1.6,2.4,2.2c1,0.5,2.2,0.8,3.6,0.8c1.4,0,2.6-0.3,3.6-0.8c1-0.5,1.8-1.3,2.4-2.2c0.6-0.9,1.1-1.9,1.3-3
			c0.3-1.1,0.4-2.3,0.4-3.5c0-1.2-0.1-2.5-0.4-3.6c-0.3-1.2-0.7-2.2-1.3-3.1c-0.6-0.9-1.4-1.6-2.4-2.2c-1-0.5-2.2-0.8-3.6-0.8
			c-1.4,0-2.6,0.3-3.6,0.8c-1,0.5-1.8,1.3-2.4,2.2c-0.6,0.9-1.1,2-1.3,3.1c-0.3,1.2-0.4,2.4-0.4,3.6
			C139.8,83.6,139.9,84.8,140.2,85.9z"/>
		<path fill="#FFFFFF" d="M165.5,76.5c0.6-1.8,1.6-3.4,2.8-4.8s2.7-2.4,4.4-3.2c1.7-0.8,3.7-1.2,5.9-1.2c2.2,0,4.2,0.4,5.9,1.2
			c1.7,0.8,3.2,1.8,4.4,3.2c1.2,1.4,2.1,2.9,2.8,4.8c0.6,1.8,1,3.8,1,5.9c0,2.1-0.3,4-1,5.8c-0.6,1.8-1.6,3.4-2.8,4.7
			c-1.2,1.3-2.7,2.4-4.4,3.1c-1.7,0.8-3.7,1.1-5.9,1.1c-2.2,0-4.1-0.4-5.9-1.1c-1.7-0.8-3.2-1.8-4.4-3.1c-1.2-1.3-2.1-2.9-2.8-4.7
			c-0.6-1.8-1-3.7-1-5.8C164.6,80.3,164.9,78.3,165.5,76.5z M171.2,85.9c0.3,1.1,0.7,2.1,1.3,3c0.6,0.9,1.4,1.6,2.4,2.2
			c1,0.5,2.2,0.8,3.6,0.8c1.4,0,2.6-0.3,3.6-0.8c1-0.5,1.8-1.3,2.4-2.2c0.6-0.9,1.1-1.9,1.3-3c0.3-1.1,0.4-2.3,0.4-3.5
			c0-1.2-0.1-2.5-0.4-3.6c-0.3-1.2-0.7-2.2-1.3-3.1c-0.6-0.9-1.4-1.6-2.4-2.2c-1-0.5-2.2-0.8-3.6-0.8c-1.4,0-2.6,0.3-3.6,0.8
			c-1,0.5-1.8,1.3-2.4,2.2c-0.6,0.9-1.1,2-1.3,3.1c-0.3,1.2-0.4,2.4-0.4,3.6C170.8,83.6,171,84.8,171.2,85.9z"/>
		<path fill="#FFFFFF" d="M203.1,68.1v11.8l11.1-11.8h7.8l-11.1,11.2l12.2,17.2h-7.9l-8.6-12.8l-3.6,3.6v9.2h-6.3V68.1H203.1z"/>
	</g>
	<g>
		<path fill="#FFFFFF" d="M50,99.9c-18.3,0-33.1-14.8-33.1-33.1S31.7,33.8,50,33.8C68.2,33.8,83,48.6,83,66.8
			C83,85.1,68.2,99.9,50,99.9 M88.3,61.3c-3.1-2.1-4.6-7-3.1-10.6c1.1-3.8-2.1-8.8-6-9.3c-3.9-0.2-7.8-3.5-8.3-7.2
			c-1-3.8-6.4-6.3-10-4.6c-3.3,2-8.4,1.3-10.9-1.6c-3-2.6-8.9-1.8-10.9,1.6c-1.6,3.4-6.3,5.5-10,4.6c-4-0.6-8.3,3.2-8.3,7.2
			c0.4,3.8-2.4,8.2-6,9.3c-3.6,1.6-5.3,7.3-3.1,10.6c2.4,3,2.4,8.1,0,11.1c-2.2,3.3-0.5,9,3.1,10.6c3.6,1.1,6.4,5.5,6,9.3
			c-0.1,3.9,4.4,7.8,8.3,7.2c3.7-0.9,8.4,1.2,10,4.6c2.1,3.3,8,4.2,10.9,1.6c2.6-2.8,7.6-3.5,10.9-1.6c3.6,1.7,9-0.8,10-4.6
			c0.6-3.7,4.6-7.2,8.3-7.2c3.9-0.5,7.1-5.5,6-9.3c-1.5-3.6,0-8.5,3.1-10.6C91.3,69.8,91.3,63.8,88.3,61.3"/>
	</g>
	<g>
		<polygon fill="#FFFFFF" points="38.7,51.6 58.4,57.4 58.4,88.5 35.6,81.7 35.6,50.6 43.2,45.2 65.4,52.1 65.4,84.9 62.5,84.9 
			62.6,53.8 44.1,47.8 		"/>
	</g>
</g>
<polygon fill="#FFFFFF" points="272.5,16.2 377.6,16.2 377.6,42.2 272.5,42.2 272.5,36.3 258.5,36.2 272.5,25.7 "/>
<g enable-background="new    ">
	<path fill="#365D9D" d="M286.1,25.6c0,0.1-0.1,0.1-0.2,0.1c-0.1,0-0.1,0-0.2-0.1c-0.1-0.1-0.2-0.2-0.4-0.3
		c-0.2-0.1-0.4-0.2-0.6-0.3s-0.5-0.1-0.9-0.1s-0.7,0.1-1,0.2c-0.3,0.1-0.5,0.2-0.7,0.4c-0.2,0.2-0.3,0.4-0.4,0.6
		c-0.1,0.2-0.1,0.5-0.1,0.7c0,0.3,0.1,0.6,0.2,0.8c0.1,0.2,0.3,0.4,0.6,0.6c0.2,0.2,0.5,0.3,0.8,0.4c0.3,0.1,0.6,0.2,0.9,0.3
		s0.6,0.2,0.9,0.3s0.6,0.3,0.8,0.5c0.2,0.2,0.4,0.4,0.6,0.7c0.1,0.3,0.2,0.6,0.2,1c0,0.4-0.1,0.8-0.2,1.2c-0.1,0.4-0.3,0.7-0.6,1
		c-0.3,0.3-0.6,0.5-1,0.6c-0.4,0.2-0.8,0.2-1.3,0.2c-0.7,0-1.2-0.1-1.7-0.3c-0.5-0.2-0.9-0.5-1.2-0.9l0.2-0.3
		c0.1-0.1,0.1-0.1,0.2-0.1c0,0,0.1,0,0.2,0.1c0.1,0.1,0.1,0.1,0.2,0.2c0.1,0.1,0.2,0.2,0.3,0.3s0.3,0.2,0.5,0.3
		c0.2,0.1,0.4,0.2,0.6,0.2c0.2,0.1,0.5,0.1,0.8,0.1c0.4,0,0.7-0.1,1.1-0.2c0.3-0.1,0.6-0.3,0.8-0.5c0.2-0.2,0.4-0.4,0.5-0.7
		c0.1-0.3,0.2-0.6,0.2-0.9c0-0.3-0.1-0.6-0.2-0.9s-0.3-0.4-0.6-0.6c-0.2-0.2-0.5-0.3-0.8-0.4s-0.6-0.2-0.9-0.3
		c-0.3-0.1-0.6-0.2-0.9-0.3c-0.3-0.1-0.6-0.3-0.8-0.5c-0.2-0.2-0.4-0.4-0.6-0.7s-0.2-0.6-0.2-1.1c0-0.3,0.1-0.7,0.2-1
		c0.1-0.3,0.3-0.6,0.6-0.8s0.5-0.4,0.9-0.6c0.4-0.1,0.8-0.2,1.2-0.2c0.5,0,1,0.1,1.4,0.2c0.4,0.2,0.8,0.4,1.1,0.7L286.1,25.6z"/>
	<path fill="#365D9D" d="M288.3,34.3V24.1h0.7v4.4c0.3-0.4,0.7-0.7,1.1-0.9s0.9-0.4,1.4-0.4c0.4,0,0.7,0.1,1,0.2
		c0.3,0.1,0.5,0.3,0.7,0.5s0.3,0.5,0.4,0.8s0.1,0.7,0.1,1.1v4.5h-0.7v-4.5c0-0.7-0.1-1.2-0.4-1.5s-0.8-0.6-1.4-0.6
		c-0.5,0-0.9,0.1-1.3,0.4c-0.4,0.2-0.7,0.6-1,1v5.2H288.3z"/>
	<path fill="#365D9D" d="M300.3,34.3c-0.1,0-0.2-0.1-0.3-0.2l-0.1-0.9c-0.2,0.2-0.4,0.4-0.6,0.5c-0.2,0.1-0.4,0.3-0.6,0.4
		s-0.4,0.2-0.7,0.2s-0.5,0.1-0.8,0.1c-0.2,0-0.5,0-0.7-0.1c-0.2-0.1-0.4-0.2-0.6-0.3c-0.2-0.1-0.3-0.3-0.4-0.6
		c-0.1-0.2-0.2-0.5-0.2-0.8c0-0.3,0.1-0.6,0.3-0.8s0.4-0.5,0.8-0.7s0.8-0.3,1.4-0.4c0.6-0.1,1.2-0.2,2-0.2v-0.7
		c0-0.6-0.1-1.1-0.4-1.5c-0.3-0.3-0.7-0.5-1.2-0.5c-0.3,0-0.6,0-0.9,0.1c-0.2,0.1-0.4,0.2-0.6,0.3c-0.2,0.1-0.3,0.2-0.4,0.3
		c-0.1,0.1-0.2,0.1-0.3,0.1c-0.1,0-0.2,0-0.2-0.1l-0.1-0.2c0.4-0.4,0.7-0.6,1.1-0.8c0.4-0.2,0.9-0.3,1.4-0.3c0.4,0,0.7,0.1,1,0.2
		c0.3,0.1,0.5,0.3,0.7,0.5c0.2,0.2,0.3,0.5,0.4,0.8c0.1,0.3,0.1,0.7,0.1,1.1v4.5H300.3z M297.5,33.9c0.3,0,0.5,0,0.7-0.1
		c0.2-0.1,0.4-0.1,0.6-0.2c0.2-0.1,0.4-0.2,0.5-0.4s0.3-0.3,0.5-0.5v-1.8c-0.7,0-1.2,0.1-1.7,0.2c-0.5,0.1-0.9,0.2-1.2,0.3
		c-0.3,0.1-0.5,0.3-0.7,0.5c-0.1,0.2-0.2,0.4-0.2,0.7c0,0.2,0,0.4,0.1,0.6c0.1,0.2,0.2,0.3,0.3,0.4s0.3,0.2,0.4,0.2
		C297.2,33.9,297.3,33.9,297.5,33.9z"/>
	<path fill="#365D9D" d="M302.7,34.3v-7h0.3c0.1,0,0.1,0,0.2,0c0,0,0.1,0.1,0.1,0.2l0.1,1.5c0.2-0.6,0.5-1,0.9-1.3s0.8-0.5,1.4-0.5
		c0.2,0,0.4,0,0.6,0.1c0.2,0,0.3,0.1,0.5,0.2l-0.1,0.5c0,0.1-0.1,0.1-0.1,0.1c0,0-0.1,0-0.1,0c-0.1,0-0.1,0-0.2-0.1
		c-0.1,0-0.2,0-0.3-0.1c-0.1,0-0.2,0-0.4,0c-0.5,0-1,0.2-1.3,0.5c-0.3,0.3-0.6,0.8-0.8,1.4v4.5H302.7z"/>
	<path fill="#365D9D" d="M310.9,27.2c0.4,0,0.8,0.1,1.1,0.2s0.6,0.3,0.9,0.6c0.2,0.3,0.4,0.6,0.6,1c0.1,0.4,0.2,0.8,0.2,1.3
		c0,0.1,0,0.2,0,0.2c0,0-0.1,0.1-0.1,0.1h-5v0.1c0,0.5,0.1,1,0.2,1.4s0.3,0.7,0.5,1c0.2,0.3,0.5,0.5,0.8,0.6
		c0.3,0.1,0.7,0.2,1.1,0.2c0.3,0,0.7,0,0.9-0.1c0.3-0.1,0.5-0.2,0.6-0.3c0.2-0.1,0.3-0.2,0.4-0.3s0.2-0.1,0.2-0.1
		c0.1,0,0.1,0,0.1,0.1l0.2,0.2c-0.1,0.1-0.3,0.3-0.4,0.4s-0.4,0.2-0.6,0.3s-0.5,0.2-0.7,0.2c-0.3,0.1-0.5,0.1-0.8,0.1
		c-0.5,0-0.9-0.1-1.3-0.2c-0.4-0.2-0.7-0.4-1-0.7s-0.5-0.7-0.7-1.2c-0.2-0.5-0.2-1-0.2-1.6c0-0.5,0.1-1,0.2-1.4
		c0.1-0.4,0.3-0.8,0.6-1.1c0.3-0.3,0.6-0.5,1-0.7C309.9,27.3,310.4,27.2,310.9,27.2z M310.9,27.7c-0.4,0-0.7,0.1-1,0.2
		s-0.5,0.3-0.7,0.5s-0.4,0.5-0.5,0.8c-0.1,0.3-0.2,0.6-0.3,1h4.6c0-0.4-0.1-0.7-0.2-1s-0.2-0.5-0.4-0.8c-0.2-0.2-0.4-0.4-0.7-0.5
		C311.5,27.8,311.2,27.7,310.9,27.7z"/>
	<path fill="#365D9D" d="M319.6,36.5c0,0.1-0.1,0.1-0.1,0.2s-0.1,0.1-0.2,0.1h-0.5l1.2-2.7l-2.9-6.7h0.6c0.1,0,0.1,0,0.2,0.1
		c0,0,0.1,0.1,0.1,0.1l2.3,5.4c0,0.1,0.1,0.1,0.1,0.2c0,0.1,0,0.1,0.1,0.2c0-0.1,0-0.1,0.1-0.2c0-0.1,0.1-0.1,0.1-0.2l2.3-5.4
		c0-0.1,0.1-0.1,0.1-0.1c0,0,0.1,0,0.1,0h0.5L319.6,36.5z"/>
	<path fill="#365D9D" d="M327.4,27.2c0.5,0,0.9,0.1,1.3,0.3c0.4,0.2,0.7,0.4,1,0.7s0.5,0.7,0.6,1.1c0.1,0.4,0.2,0.9,0.2,1.5
		s-0.1,1-0.2,1.5c-0.1,0.4-0.3,0.8-0.6,1.1s-0.6,0.6-1,0.7s-0.8,0.3-1.3,0.3s-0.9-0.1-1.3-0.3s-0.7-0.4-1-0.7s-0.5-0.7-0.6-1.1
		c-0.1-0.4-0.2-0.9-0.2-1.5s0.1-1,0.2-1.5c0.1-0.4,0.4-0.8,0.6-1.1s0.6-0.6,1-0.7C326.5,27.3,326.9,27.2,327.4,27.2z M327.4,33.9
		c0.4,0,0.8-0.1,1.1-0.2s0.6-0.3,0.8-0.6c0.2-0.3,0.4-0.6,0.5-1c0.1-0.4,0.2-0.8,0.2-1.3c0-0.5-0.1-0.9-0.2-1.3
		c-0.1-0.4-0.3-0.7-0.5-1c-0.2-0.3-0.5-0.5-0.8-0.6s-0.7-0.2-1.1-0.2s-0.8,0.1-1.1,0.2s-0.6,0.4-0.8,0.6c-0.2,0.3-0.4,0.6-0.5,1
		c-0.1,0.4-0.2,0.8-0.2,1.3c0,0.5,0.1,0.9,0.2,1.3c0.1,0.4,0.3,0.7,0.5,1c0.2,0.3,0.5,0.5,0.8,0.6S327,33.9,327.4,33.9z"/>
	<path fill="#365D9D" d="M332.9,27.3v4.5c0,0.7,0.1,1.2,0.4,1.5c0.3,0.4,0.8,0.6,1.4,0.6c0.5,0,0.9-0.1,1.3-0.3
		c0.4-0.2,0.7-0.6,1.1-1v-5.2h0.7v7h-0.4c-0.1,0-0.2-0.1-0.2-0.2l-0.1-1c-0.3,0.4-0.7,0.7-1.1,1c-0.4,0.2-0.9,0.4-1.4,0.4
		c-0.4,0-0.7-0.1-1-0.2c-0.3-0.1-0.5-0.3-0.7-0.5s-0.3-0.5-0.4-0.8c-0.1-0.3-0.1-0.7-0.1-1.1v-4.5H332.9z"/>
	<path fill="#365D9D" d="M339.9,34.3v-7h0.3c0.1,0,0.1,0,0.2,0c0,0,0.1,0.1,0.1,0.2l0.1,1.5c0.2-0.6,0.5-1,0.9-1.3
		c0.4-0.3,0.8-0.5,1.4-0.5c0.2,0,0.4,0,0.6,0.1c0.2,0,0.3,0.1,0.5,0.2l-0.1,0.5c0,0.1-0.1,0.1-0.1,0.1c0,0-0.1,0-0.1,0
		c-0.1,0-0.1,0-0.2-0.1s-0.2,0-0.3-0.1s-0.2,0-0.4,0c-0.5,0-1,0.2-1.3,0.5c-0.3,0.3-0.6,0.8-0.8,1.4v4.5H339.9z"/>
	<path fill="#365D9D" d="M349.3,28.2c0,0.1-0.1,0.1-0.2,0.1c-0.1,0-0.1,0-0.2-0.1c-0.1-0.1-0.2-0.1-0.3-0.2
		c-0.1-0.1-0.3-0.1-0.5-0.2c-0.2-0.1-0.4-0.1-0.7-0.1c-0.3,0-0.5,0-0.7,0.1c-0.2,0.1-0.4,0.2-0.5,0.3s-0.3,0.3-0.3,0.4
		c-0.1,0.2-0.1,0.3-0.1,0.5c0,0.2,0.1,0.4,0.2,0.5c0.1,0.1,0.3,0.3,0.4,0.4s0.4,0.2,0.6,0.3c0.2,0.1,0.5,0.1,0.7,0.2
		s0.5,0.2,0.7,0.2c0.2,0.1,0.4,0.2,0.6,0.3c0.2,0.1,0.3,0.3,0.4,0.5c0.1,0.2,0.2,0.4,0.2,0.7c0,0.3-0.1,0.6-0.2,0.8
		c-0.1,0.3-0.3,0.5-0.5,0.7c-0.2,0.2-0.5,0.3-0.8,0.5c-0.3,0.1-0.6,0.2-1,0.2c-0.5,0-0.9-0.1-1.3-0.2c-0.4-0.2-0.7-0.4-1-0.6
		l0.2-0.2c0,0,0-0.1,0.1-0.1s0.1,0,0.1,0c0.1,0,0.1,0,0.2,0.1c0.1,0.1,0.2,0.2,0.3,0.2c0.1,0.1,0.3,0.2,0.5,0.2
		c0.2,0.1,0.5,0.1,0.8,0.1c0.3,0,0.6,0,0.8-0.1c0.2-0.1,0.4-0.2,0.6-0.3c0.1-0.1,0.3-0.3,0.3-0.5c0.1-0.2,0.1-0.4,0.1-0.6
		c0-0.2-0.1-0.4-0.2-0.6c-0.1-0.2-0.3-0.3-0.4-0.4c-0.2-0.1-0.4-0.2-0.6-0.3c-0.2-0.1-0.5-0.1-0.7-0.2c-0.2-0.1-0.5-0.2-0.7-0.2
		c-0.2-0.1-0.4-0.2-0.6-0.3c-0.2-0.1-0.3-0.3-0.4-0.5c-0.1-0.2-0.2-0.4-0.2-0.7c0-0.2,0.1-0.5,0.2-0.7s0.3-0.4,0.5-0.6
		c0.2-0.2,0.4-0.3,0.7-0.4c0.3-0.1,0.6-0.2,1-0.2c0.4,0,0.8,0.1,1.1,0.2s0.6,0.3,0.9,0.6L349.3,28.2z"/>
	<path fill="#365D9D" d="M354.1,27.2c0.4,0,0.8,0.1,1.1,0.2s0.6,0.3,0.9,0.6c0.2,0.3,0.4,0.6,0.6,1c0.1,0.4,0.2,0.8,0.2,1.3
		c0,0.1,0,0.2,0,0.2c0,0-0.1,0.1-0.1,0.1h-5v0.1c0,0.5,0.1,1,0.2,1.4s0.3,0.7,0.5,1c0.2,0.3,0.5,0.5,0.8,0.6
		c0.3,0.1,0.7,0.2,1.1,0.2c0.3,0,0.7,0,0.9-0.1c0.3-0.1,0.5-0.2,0.6-0.3c0.2-0.1,0.3-0.2,0.4-0.3s0.2-0.1,0.2-0.1
		c0.1,0,0.1,0,0.1,0.1l0.2,0.2c-0.1,0.1-0.3,0.3-0.4,0.4s-0.4,0.2-0.6,0.3s-0.5,0.2-0.7,0.2c-0.3,0.1-0.5,0.1-0.8,0.1
		c-0.5,0-0.9-0.1-1.3-0.2c-0.4-0.2-0.7-0.4-1-0.7s-0.5-0.7-0.7-1.2c-0.2-0.5-0.2-1-0.2-1.6c0-0.5,0.1-1,0.2-1.4
		c0.1-0.4,0.3-0.8,0.6-1.1c0.3-0.3,0.6-0.5,1-0.7C353.2,27.3,353.6,27.2,354.1,27.2z M354.2,27.7c-0.4,0-0.7,0.1-1,0.2
		s-0.5,0.3-0.7,0.5s-0.4,0.5-0.5,0.8c-0.1,0.3-0.2,0.6-0.3,1h4.6c0-0.4-0.1-0.7-0.2-1s-0.2-0.5-0.4-0.8c-0.2-0.2-0.4-0.4-0.7-0.5
		C354.8,27.8,354.5,27.7,354.2,27.7z"/>
	<path fill="#365D9D" d="M359.5,24.1v10.2h-0.7V24.1H359.5z"/>
	<path fill="#365D9D" d="M362.3,34.3v-6.2l-1-0.1c-0.1,0-0.2-0.1-0.2-0.2v-0.3h1.2v-0.9c0-0.4,0.1-0.7,0.2-1s0.2-0.6,0.4-0.8
		c0.2-0.2,0.4-0.4,0.7-0.5c0.3-0.1,0.6-0.2,0.9-0.2c0.1,0,0.3,0,0.4,0c0.1,0,0.3,0.1,0.4,0.1l0,0.3c0,0.1,0,0.1-0.1,0.1
		c-0.1,0-0.1,0-0.2,0c-0.1,0-0.2,0-0.4,0c-0.2,0-0.4,0-0.6,0.1c-0.2,0.1-0.4,0.2-0.5,0.3c-0.1,0.1-0.2,0.3-0.3,0.6
		c-0.1,0.2-0.1,0.5-0.1,0.9v0.9h2.3v0.5h-2.2v6.3H362.3z"/>
	<path fill="#365D9D" d="M367,33.8c0-0.1,0-0.2,0-0.3s0.1-0.1,0.1-0.2c0.1-0.1,0.1-0.1,0.2-0.1c0.1,0,0.2-0.1,0.3-0.1
		c0.1,0,0.2,0,0.3,0.1c0.1,0,0.1,0.1,0.2,0.1c0.1,0.1,0.1,0.1,0.1,0.2s0.1,0.2,0.1,0.3c0,0.1,0,0.2-0.1,0.3s-0.1,0.1-0.1,0.2
		c-0.1,0.1-0.1,0.1-0.2,0.1c-0.1,0-0.2,0-0.3,0c-0.2,0-0.3-0.1-0.5-0.2C367,34.1,367,34,367,33.8z M368,24.4v4c0,0.2,0,0.4,0,0.6
		c0,0.2,0,0.4,0,0.6c0,0.2,0,0.4,0,0.6c0,0.2,0,0.5,0,0.7h-0.5c0-0.3,0-0.5,0-0.7c0-0.2,0-0.4,0-0.6s0-0.4,0-0.6s0-0.4,0-0.6v-4H368
		z"/>
</g>
</svg>
